<svg width="24" height="24" viewBox="0 0 24 24" fill="none" xmlns="http://www.w3.org/2000/svg">
<path d="M21.5824 10.5924H5.41244L10.2924 5.71244C10.6824 5.32244 10.6824 4.68244 10.2924 4.29244C10.1999 4.19974 10.09 4.12619 9.96907 4.07601C9.8481 4.02583 9.71841 4 9.58744 4C9.45648 4 9.32679 4.02583 9.20582 4.07601C9.08485 4.12619 8.97496 4.19974 8.88244 4.29244L2.29244 10.8824C2.19974 10.975 2.12619 11.0848 2.07601 11.2058C2.02583 11.3268 2 11.4565 2 11.5874C2 11.7184 2.02583 11.8481 2.07601 11.9691C2.12619 12.09 2.19974 12.1999 2.29244 12.2924L8.88244 18.8824C8.97503 18.975 9.08494 19.0485 9.2059 19.0986C9.32687 19.1487 9.45651 19.1745 9.58744 19.1745C9.71837 19.1745 9.84802 19.1487 9.96899 19.0986C10.09 19.0485 10.1999 18.975 10.2924 18.8824C10.385 18.7899 10.4585 18.68 10.5086 18.559C10.5587 18.438 10.5845 18.3084 10.5845 18.1774C10.5845 18.0465 10.5587 17.9169 10.5086 17.7959C10.4585 17.6749 10.385 17.565 10.2924 17.4724L5.41244 12.5924H21.5824C22.1324 12.5924 22.5824 12.1424 22.5824 11.5924C22.5824 11.0424 22.1324 10.5924 21.5824 10.5924Z" fill="white"/>
</svg>
